P1
20 17

00000000000000000000
00001110000001000000
00001010000011100000
00001010000001000000
00001010000000000000
00010001000011111000
00010011000010001000
00010101000010001000
00011001000010001000
00010011000010001000
00010101000001010000
00011001000000100000
00010001000000100000
00010001000000100000
00010001000000100000
00011111000011111000
00000000000000000000
