P1
#image 7
3 5
1 1 1
0 0 1
0 0 1
0 0 1
0 0 1
